<svg width="115" height="115" viewBox="0 0 115 115" fill="none" xmlns="http://www.w3.org/2000/svg">
<g clip-path="url(#clip0_1528_2732)">
<path d="M57.5001 114.617C89.0447 114.617 114.617 89.0449 114.617 57.5003C114.617 25.9557 89.0447 0.383789 57.5001 0.383789C25.9555 0.383789 0.383545 25.9557 0.383545 57.5003C0.383545 89.0449 25.9555 114.617 57.5001 114.617Z" stroke="#01358D" stroke-width="1.5" stroke-miterlimit="10" stroke-dasharray="3 3"/>
<g clip-path="url(#clip1_1528_2732)">
<path d="M76.3719 61.3605C76.3428 62.2589 76.5205 63.1832 76.0794 64.0316C75.9631 64.2578 76.1263 64.3144 76.2426 64.4097C77.0457 65.0755 77.3576 65.9384 77.3495 66.9693C77.3285 69.4077 77.3479 71.8461 77.3414 74.2845C77.335 76.5758 76.0568 78.3323 73.864 79.0304C73.515 79.1419 73.4665 79.3099 73.4681 79.6234C73.4794 81.8598 73.4503 84.0978 73.4907 86.3326C73.5004 86.9127 73.3114 86.9952 72.7943 86.9952C59.6958 86.9806 46.5989 86.9806 33.5004 87C32.9252 87.0016 32.8298 86.8255 32.8363 86.3052C32.8621 83.807 32.8411 81.3072 32.8557 78.809C32.8573 78.4584 32.762 78.2127 32.505 77.9703C31.8603 77.3628 31.2608 76.7051 30.6128 76.1024C30.3203 75.8309 30.2654 75.5998 30.511 75.2928C30.5352 75.2621 30.5385 75.2152 30.5627 75.1845C31.4999 73.9936 31.5937 72.7623 30.7889 71.4583C30.6548 71.2417 30.5563 71.0753 30.2912 71.001C29.653 70.8216 29.0276 70.6002 28.3958 70.4047C28.1502 70.3288 27.9983 70.248 28.0015 69.9232C28.0209 67.7465 28.0193 65.5699 28.0031 63.3949C28.0015 63.1057 28.1259 63.0136 28.357 62.9425C29.0098 62.7421 29.6546 62.5143 30.3106 62.3317C30.5805 62.2557 30.6985 62.1022 30.7889 61.8566C30.978 61.3492 31.1751 60.8434 31.4094 60.3554C31.5209 60.1243 31.5048 59.9514 31.3917 59.7414C31.0766 59.158 30.7938 58.5569 30.4641 57.9817C30.2912 57.6811 30.3042 57.4662 30.5918 57.2723C30.6403 57.2383 30.6791 57.1883 30.7211 57.1446C31.4272 56.4272 32.4 55.8228 32.762 54.9615C33.1158 54.1213 32.8492 53.0192 32.8492 52.0319C32.8476 43.8959 32.8524 35.7549 32.8331 27.614C32.8331 27.1018 32.9639 27 33.4568 27.0016C46.5957 27.0162 59.733 27.0162 72.8718 27C73.3809 27 73.5053 27.1244 73.4859 27.6221C73.4439 28.708 73.4713 29.7971 73.4713 30.8862C72.8266 30.8862 72.1835 30.8862 71.5387 30.8862C71.5387 30.4435 71.4999 29.9959 71.5468 29.558C71.6001 29.057 71.4418 28.9358 70.9344 28.9358C59.085 28.952 47.2372 28.952 35.3878 28.9358C34.8917 28.9358 34.7657 29.0425 34.7657 29.5499C34.7851 37.1866 34.7786 44.8234 34.7786 52.4617C34.7786 52.6298 34.7786 52.7995 34.7786 53.163C35.202 52.4327 35.5914 52.5393 36.0568 52.8334C36.5302 53.1323 37.0522 53.357 37.5531 53.6139C37.7131 53.6963 37.8488 53.7496 38.0556 53.6704C39.9624 52.9401 39.9656 52.9465 40.6072 50.9493C40.6443 50.8345 40.6976 50.723 40.717 50.6051C40.772 50.2835 40.9594 50.2189 41.2664 50.2221C43.3817 50.2367 45.4985 50.2383 47.6137 50.2205C47.953 50.2173 48.1114 50.3061 48.2019 50.639C48.378 51.2773 48.6059 51.901 48.7965 52.5361C48.8579 52.7445 48.9501 52.8786 49.1585 52.9708C51.0216 53.7916 51.02 53.7949 52.8331 52.8609C52.9753 52.7865 53.1288 52.7284 53.258 52.6363C53.4697 52.4876 53.6055 52.5587 53.7703 52.7251C55.3038 54.2699 56.8389 55.8115 58.3901 57.3385C58.618 57.5631 58.5808 57.7263 58.4532 57.9623C58.1364 58.544 57.8375 59.1354 57.5353 59.7268C57.4481 59.8997 57.3657 60.0452 57.4578 60.2827C58.1946 62.1862 58.1865 62.1895 60.1224 62.8148C60.1983 62.8391 60.2727 62.8843 60.3502 62.894C60.7914 62.9425 60.9142 63.1719 60.9077 63.6163C60.8802 65.6507 60.8835 67.6868 60.9061 69.7212C60.9109 70.1494 60.814 70.374 60.3648 70.4564C58.9848 70.7117 57.8472 71.2498 57.558 72.8383C57.4998 73.1598 57.3931 73.407 57.5773 73.7238C57.9005 74.278 58.1655 74.8678 58.4742 75.4302C58.5986 75.6564 58.5986 75.8034 58.3998 75.999C56.8518 77.5292 55.3135 79.0675 53.7848 80.6156C53.5893 80.8143 53.4439 80.8192 53.2176 80.6964C52.6181 80.37 52.0057 80.0662 51.3998 79.7527C51.2236 79.6622 51.075 79.617 50.8423 79.6816C49.4284 80.0775 48.4217 80.8224 48.2924 82.4076C48.2827 82.524 48.2132 82.6355 48.1857 82.7518C48.1227 83.0184 47.9951 83.1299 47.6896 83.1267C45.534 83.1105 43.3768 83.1105 41.2212 83.1267C40.919 83.1283 40.7994 83.02 40.7203 82.755C40.5247 82.1006 40.305 81.4542 40.1046 80.8014C40.0497 80.622 39.9834 80.4847 39.796 80.3926C38.012 79.5071 38.012 79.5006 36.2313 80.4217C35.7481 80.6721 35.2747 81.0583 34.7818 80.2197C34.7818 81.842 34.7931 83.2883 34.7738 84.7345C34.7689 85.0932 34.9677 85.0528 35.1923 85.0512C36.3816 85.048 37.5693 85.0496 38.7586 85.0496C49.4995 85.0496 60.2387 85.0464 70.9796 85.0593C71.4046 85.0593 71.5613 84.9979 71.5517 84.518C71.5161 82.8665 71.5258 81.2135 71.5468 79.562C71.5517 79.234 71.4305 79.1289 71.1444 79.0352C68.9565 78.3258 67.6751 76.571 67.6703 74.2829C67.6638 71.8445 67.6832 69.4061 67.6622 66.9677C67.6525 65.9351 67.966 65.0738 68.7707 64.4097C68.8886 64.3128 69.0486 64.2562 68.9323 64.0316C68.4911 63.1816 68.6705 62.2589 68.6398 61.3605C69.2845 61.4817 69.9277 61.6029 70.5724 61.7241C70.566 63.6858 70.6403 63.7698 72.3838 63.7698C74.407 63.7698 74.4441 63.7327 74.4377 61.7241C75.084 61.6029 75.7271 61.4817 76.3719 61.3605ZM32.6828 75.3025C32.7135 75.4996 32.8605 75.5885 32.9704 75.7C33.6943 76.4288 34.4635 77.1188 35.1341 77.8944C35.5962 78.4276 35.9905 78.4939 36.5367 78.0802C37.3592 77.4581 38.1978 77.3094 39.072 78.0188C39.266 78.1772 39.5374 78.2919 39.7863 78.3242C41.2487 78.5101 41.9387 79.4117 42.1342 80.7885C42.181 81.1246 42.3604 81.1941 42.6723 81.1892C43.6386 81.1715 44.6065 81.1828 45.5744 81.1828C46.6571 81.1828 46.7314 81.1989 46.9609 80.1518C47.1661 79.2194 47.604 78.6733 48.5606 78.5295C48.8709 78.4826 49.2054 78.3695 49.4542 78.1869C50.5886 77.3531 51.6761 77.4242 52.7523 78.2741C53.0609 78.5181 53.2726 78.3921 53.5134 78.1416C54.2405 77.387 54.9677 76.6308 55.7401 75.923C56.1586 75.54 56.3137 75.2104 55.9372 74.7208C55.2375 73.811 55.0937 72.877 55.8645 71.9172C55.9728 71.7815 56.0212 71.5924 56.0826 71.4227C56.2992 70.82 56.3509 70.0476 56.7645 69.6549C57.1976 69.2413 57.97 69.1685 58.6051 68.9892C58.8991 68.9068 58.9799 68.7694 58.9719 68.4818C58.9541 67.7966 58.9719 67.1115 58.9638 66.4264C58.9573 65.7848 59.1593 64.9931 58.8571 64.5487C58.5776 64.1382 57.7567 64.0752 57.1621 63.9039C56.8179 63.8054 56.6353 63.6405 56.5416 63.2834C56.3977 62.7421 56.2798 62.1507 55.9711 61.7047C55.1551 60.5267 55.2246 59.4392 56.0729 58.3452C56.2992 58.0528 56.1828 57.8605 55.9469 57.6342C55.2908 57.0089 54.6606 56.3561 54.0191 55.7162C53.1643 54.8597 53.1336 54.8113 52.1204 55.4237C51.3901 55.8648 50.7647 55.9715 50.0553 55.4334C49.7903 55.233 49.451 55.0666 49.1262 55.0229C47.6703 54.8226 46.969 53.9354 46.7767 52.5555C46.7298 52.2194 46.5488 52.1499 46.2386 52.1563C45.2513 52.1741 44.2639 52.1628 43.2766 52.1628C42.2554 52.1628 42.1794 52.1466 41.9677 53.1356C41.7593 54.1083 41.3182 54.7046 40.2953 54.8307C40.006 54.8662 39.6958 54.9906 39.4615 55.1635C38.3271 56.0022 37.238 55.9004 36.1634 55.0682C35.8532 54.829 35.6431 54.9518 35.4023 55.2023C34.6768 55.9569 33.9496 56.7148 33.1772 57.4209C32.7587 57.8039 32.602 58.1336 32.9801 58.6216C33.683 59.5329 33.8236 60.4669 33.0496 61.4251C32.9526 61.5463 32.9058 61.7128 32.8524 61.8631C32.6311 62.4852 32.5777 63.2818 32.1528 63.6874C31.7068 64.1124 30.9085 64.1754 30.2557 64.3709C30.0182 64.442 29.9438 64.5584 29.9471 64.7991C29.9568 66.0482 29.9568 67.2973 29.9471 68.5464C29.9454 68.7872 30.0198 68.9051 30.2589 68.9714C30.7615 69.1104 31.2479 69.3091 31.7536 69.4352C32.1108 69.5224 32.2837 69.7018 32.3725 70.0573C32.5648 70.8394 32.7975 71.6328 33.2467 72.2937C33.7412 73.0208 33.6798 73.63 33.2128 74.3039C32.9914 74.6157 32.8508 74.9761 32.6828 75.3025ZM69.6045 70.6018C69.6045 71.8719 69.5916 73.1404 69.6077 74.4105C69.6287 76.0264 70.8988 77.2981 72.4792 77.3111C74.087 77.324 75.391 76.0474 75.4023 74.4041C75.4201 71.8849 75.4104 69.3657 75.4056 66.8481C75.404 66.0628 75.0452 65.7137 74.2551 65.7089C73.0868 65.7024 71.9168 65.7024 70.7485 65.7089C69.9616 65.7137 69.611 66.066 69.6061 66.8562C69.5996 68.1037 69.6045 69.3528 69.6045 70.6018Z" fill="#01358D"/>
<path d="M70.5725 61.7242C69.9278 61.603 69.2846 61.4818 68.6399 61.3606C68.5817 61.3429 68.5252 61.3235 68.467 61.3073C61.1825 59.3068 56.2007 52.2276 57.146 44.5601C57.6938 40.1083 59.8106 36.5598 63.3817 33.8774C65.7943 32.066 68.551 31.1465 71.5404 30.8848C72.1852 30.8848 72.8283 30.8848 73.473 30.8848C76.4625 31.1449 79.2208 32.0595 81.6317 33.8758C85.2336 36.5889 87.3504 40.1746 87.8772 44.6797C88.7643 52.2599 83.7873 59.3052 76.658 61.2637C76.561 61.2895 76.4673 61.3283 76.372 61.3606C75.7272 61.4818 75.0841 61.603 74.4394 61.7242C73.1499 61.8729 71.862 61.8729 70.5725 61.7242ZM60.8981 46.3651C60.8997 52.7592 66.1159 57.9689 72.5116 57.9673C78.9057 57.9656 84.1154 52.7495 84.1138 46.3538C84.1105 39.958 78.8976 34.75 72.5003 34.7532C66.1029 34.7532 60.8965 39.9661 60.8981 46.3651Z" fill="#7B91B0"/>
<path d="M60.8979 46.3654C60.8963 39.9665 66.1028 34.7552 72.4985 34.752C78.8959 34.7503 84.1087 39.9568 84.112 46.3525C84.1152 52.7482 78.9055 57.9644 72.5098 57.966C66.1157 57.9692 60.9012 52.7579 60.8979 46.3654ZM62.8338 46.3234C62.8209 51.664 67.1563 56.0237 72.4856 56.0317C77.7987 56.0398 82.1535 51.7221 82.1777 46.422C82.202 41.0766 77.8795 36.704 72.5551 36.6862C67.208 36.67 62.8451 40.9942 62.8338 46.3234Z" fill="#01358D"/>
<path d="M46.3889 30.8816C49.4316 30.8816 52.4744 30.8929 55.5171 30.8703C55.968 30.867 56.0778 30.9737 56.0746 31.4261C56.052 34.2879 56.052 37.148 56.0746 40.0098C56.0778 40.4623 55.9696 40.5673 55.5171 40.5657C49.4316 40.5495 43.3462 40.5495 37.2607 40.5657C36.8098 40.5673 36.7 40.4623 36.7032 40.0098C36.7258 37.148 36.7258 34.2879 36.7032 31.4261C36.7 30.9737 36.8082 30.8654 37.2607 30.8703C40.3034 30.8929 43.3462 30.8816 46.3889 30.8816ZM46.3889 38.6201C48.8063 38.6201 51.2237 38.6104 53.6427 38.6298C54.037 38.6331 54.1436 38.5313 54.1371 38.137C54.1145 36.5049 54.1178 34.8729 54.1355 33.2408C54.1388 32.8982 54.0434 32.8094 53.7025 32.8094C48.8273 32.8207 43.9505 32.8207 39.0753 32.8094C38.7344 32.8094 38.639 32.8982 38.6423 33.2408C38.6601 34.8729 38.6633 36.5049 38.6407 38.137C38.6342 38.5329 38.7425 38.6331 39.1351 38.6298C41.5541 38.6104 43.9715 38.6201 46.3889 38.6201Z" fill="#01358D"/>
<path d="M38.647 42.5078C39.2949 42.5078 39.9413 42.5078 40.5893 42.5078C40.5877 42.97 40.6119 43.4337 40.578 43.8943C40.5473 44.2998 40.6491 44.4388 41.0918 44.4372C45.7537 44.4178 50.4172 44.4243 55.0791 44.4227C55.0791 45.0706 55.0791 45.717 55.0791 46.365C48.9645 46.365 42.8499 46.365 36.7354 46.365C36.7354 45.717 36.7354 45.0706 36.7354 44.4227C37.3494 44.413 38.1735 44.6408 38.5242 44.3322C38.9233 43.9767 38.613 43.1348 38.647 42.5078Z" fill="#7B91B0"/>
<path d="M36.7338 46.3633C42.8483 46.3633 48.9629 46.3633 55.0775 46.3633C55.0742 46.9838 55.2988 47.7756 54.9999 48.1779C54.7171 48.5577 53.8736 48.2878 53.2773 48.2894C47.9594 48.2991 42.6415 48.2878 37.3219 48.3072C36.8242 48.3088 36.6449 48.2022 36.7047 47.6916C36.758 47.252 36.7273 46.806 36.7338 46.3633Z" fill="#01358D"/>
<path d="M55.0776 44.4209C50.4158 44.4225 45.7523 44.4177 41.0904 44.4354C40.6492 44.437 40.5458 44.2981 40.5765 43.8925C40.6121 43.4336 40.5878 42.9682 40.5878 42.506C45.3014 42.4996 50.015 42.4964 54.727 42.4834C55.013 42.4818 55.1148 42.5545 55.0986 42.8502C55.0744 43.3722 55.0841 43.8973 55.0776 44.4209Z" fill="#01358D"/>
<path d="M58.9816 79.2439C58.9848 78.6234 58.7586 77.8316 59.0575 77.4293C59.3403 77.0479 60.1838 77.3226 60.7785 77.3178C62.5915 77.3016 64.4045 77.3242 66.216 77.3032C66.607 77.2984 66.7428 77.3953 66.7104 77.7961C66.67 78.276 66.691 78.7608 66.6846 79.2439C64.1169 79.2439 61.5493 79.2439 58.9816 79.2439Z" fill="#01358D"/>
<path d="M58.9816 79.2441C61.5493 79.2441 64.1169 79.2441 66.6846 79.2441C66.6846 79.8921 66.6846 80.5385 66.6846 81.1865C64.1169 81.1865 61.5493 81.1865 58.98 81.1865C58.9816 80.5385 58.9816 79.8905 58.9816 79.2441Z" fill="#7B91B0"/>
<path d="M58.9816 81.1855C61.5493 81.1855 64.1169 81.1855 66.6862 81.1855C66.683 81.8061 66.9076 82.5978 66.6103 82.9986C66.3275 83.3783 65.484 83.1052 64.8893 83.1101C63.0763 83.1262 61.2649 83.1036 59.4518 83.1246C59.0608 83.1295 58.9234 83.0325 58.9574 82.6318C58.9961 82.1535 58.9751 81.6671 58.9816 81.1855Z" fill="#01358D"/>
<path d="M38.6471 42.5074C38.6132 43.136 38.9235 43.9762 38.5227 44.3301C38.1721 44.6387 37.348 44.4109 36.7339 44.4206C36.7388 43.7855 36.4463 42.9356 36.8438 42.5801C37.188 42.2698 38.0266 42.509 38.6471 42.5074Z" fill="#01358D"/>
<path d="M55.0952 66.7046C55.0823 72.5623 50.2896 77.3259 44.4222 77.313C38.5662 77.3001 33.8025 72.5073 33.8155 66.64C33.8268 60.7824 38.6179 56.0219 44.4885 56.0332C50.3445 56.0445 55.1082 60.8373 55.0952 66.7046ZM35.8515 65.7044C37.057 65.7044 38.2608 65.6963 39.4646 65.7109C39.7264 65.7141 39.741 65.5573 39.7943 65.3861C40.3227 63.6619 41.4506 62.5356 43.1748 62.0088C43.3509 61.9555 43.4979 61.9329 43.4947 61.6759C43.4802 60.4737 43.4882 59.2715 43.4882 58.0676C39.6989 58.2648 36.0309 61.9361 35.8515 65.7044ZM53.0592 65.7044C52.8572 61.9135 49.194 58.2535 45.4225 58.0693C45.4225 59.2747 45.4305 60.4786 45.416 61.6824C45.4128 61.9442 45.5679 61.9603 45.7408 62.0121C47.465 62.5388 48.5945 63.6667 49.1132 65.3941C49.1794 65.6155 49.257 65.7157 49.5123 65.7125C50.6758 65.6963 51.8392 65.7044 53.0592 65.7044ZM43.4866 75.3303C43.4866 74.0667 43.4785 72.8628 43.4931 71.659C43.4963 71.3956 43.3331 71.3827 43.1651 71.331C41.4409 70.8026 40.313 69.673 39.7959 67.9473C39.728 67.721 39.644 67.6305 39.3952 67.6338C38.3303 67.6483 37.2638 67.6596 36.1989 67.6305C35.8192 67.6208 35.8256 67.7857 35.8693 68.0571C35.9985 68.8554 36.2215 69.6229 36.5786 70.3469C37.9893 73.207 40.2904 74.8326 43.4866 75.3303ZM51.1137 67.6402C50.5917 67.6402 50.0666 67.6596 49.5462 67.6322C49.2667 67.6176 49.1778 67.7226 49.1019 67.9747C48.588 69.6779 47.4763 70.8026 45.7699 71.3116C45.4774 71.3988 45.4128 71.5313 45.416 71.8093C45.4305 72.8337 45.4386 73.8598 45.4128 74.8843C45.4031 75.2544 45.5243 75.3158 45.8539 75.2592C47.1386 75.0362 48.323 74.5724 49.3911 73.8243C51.3415 72.4572 52.5292 70.5893 53.0107 68.2672C53.0867 67.9052 53.1804 67.5514 52.5599 67.6289C52.0848 67.6871 51.5968 67.6402 51.1137 67.6402ZM44.4707 63.7718C42.8887 63.7637 41.575 65.0483 41.554 66.6238C41.533 68.2333 42.8338 69.5648 44.4368 69.5729C46.0171 69.5809 47.3341 68.2931 47.3551 66.7192C47.3761 65.1114 46.0737 63.7799 44.4707 63.7718Z" fill="#01358D"/>
<path d="M78.9654 42.2167C78.8588 42.3314 78.7812 42.4219 78.6972 42.5059C75.7627 45.4404 72.8282 48.3732 69.8986 51.3126C69.695 51.5178 69.5738 51.5873 69.3314 51.3384C68.336 50.3123 67.3196 49.3056 66.3 48.3021C66.0899 48.0969 66.0463 47.9773 66.279 47.7317C67.3519 46.6038 67.3422 46.5941 68.4281 47.68C68.698 47.9515 68.9921 48.2036 69.2328 48.4977C69.5059 48.8305 69.6853 48.795 69.9794 48.4977C72.3451 46.1061 74.7414 43.7437 77.0974 41.3425C77.5143 40.9175 77.7761 40.8302 78.1461 41.3425C78.3207 41.5848 78.5679 41.7739 78.7796 41.9888C78.8442 42.0551 78.8975 42.1326 78.9654 42.2167Z" fill="#01358D"/>
</g>
</g>
<defs>
<clipPath id="clip0_1528_2732">
<rect width="115" height="115" fill="white"/>
</clipPath>
<clipPath id="clip1_1528_2732">
<rect width="59.979" height="60" fill="white" transform="translate(28 27)"/>
</clipPath>
</defs>
</svg>
