<svg width="115" height="115" viewBox="0 0 115 115" fill="none" xmlns="http://www.w3.org/2000/svg">
<g clip-path="url(#clip0_1529_2758)">
<path d="M57.5001 114.617C89.0447 114.617 114.617 89.0449 114.617 57.5003C114.617 25.9557 89.0447 0.383789 57.5001 0.383789C25.9555 0.383789 0.383545 25.9557 0.383545 57.5003C0.383545 89.0449 25.9555 114.617 57.5001 114.617Z" stroke="#01358D" stroke-width="1.5" stroke-miterlimit="10" stroke-dasharray="3 3"/>
<g clip-path="url(#clip1_1529_2758)">
<path d="M58.2659 26.9996C59.7975 27.3191 60.7919 28.4059 61.8318 29.4505C65.8534 33.4909 69.8907 37.5141 73.9201 41.5451C74.8018 42.4268 74.8034 42.9388 73.9279 43.8158C72.2585 45.4868 70.5844 47.1531 68.9197 48.8303C68.5423 49.2109 68.1414 49.5006 67.5792 49.3456C67.0029 49.1874 66.7821 48.7598 66.6552 48.1929C66.2935 46.5689 64.9059 45.598 63.2381 45.7405C61.8334 45.8611 60.6212 47.081 60.4959 48.4999C60.3472 50.1599 61.3244 51.5443 62.9578 51.9092C63.5012 52.0313 63.9178 52.2427 64.0822 52.7893C64.2513 53.3437 63.9929 53.7587 63.6077 54.1408C61.9304 55.8039 60.2673 57.4812 58.5932 59.1474C57.8556 59.8819 57.2715 59.8804 56.5338 59.1459C55.3155 57.9338 54.0971 56.7232 52.8912 55.5001C52.6281 55.2323 52.5028 55.1352 52.246 55.5487C51.0261 57.5078 48.7866 58.4631 46.5519 58.0324C44.422 57.6221 42.6618 55.8838 42.228 53.7634C41.7644 51.4957 42.6994 49.2672 44.682 48.0081C45.0453 47.7779 45.0735 47.6667 44.7587 47.3614C43.5403 46.179 42.3486 44.9684 41.149 43.7673C40.3393 42.9561 40.3331 42.4205 41.1271 41.6265C45.5151 37.2353 49.9126 32.8535 54.2881 28.4498C54.9631 27.7701 55.7884 27.3896 56.6247 26.998C57.1728 26.9996 57.7193 26.9996 58.2659 26.9996ZM58.1422 48.9039C58.1297 48.2493 58.2361 47.6151 58.4632 47.009C59.2181 44.9904 60.676 43.7548 62.7902 43.4431C64.9263 43.1299 66.7085 43.8832 68.0161 45.6293C68.2604 45.9566 68.3669 46.1038 68.7208 45.7248C69.5728 44.8118 70.4591 43.9286 71.3706 43.0751C71.7308 42.7384 71.6431 42.5708 71.3424 42.2717C67.3161 38.2642 63.3007 34.2426 59.2838 30.2257C58.0889 29.0308 57.0475 29.0276 55.8589 30.2163C51.8404 34.2332 47.8266 38.2548 43.7956 42.2576C43.4511 42.599 43.4433 42.765 43.7925 43.1048C45.2489 44.519 46.674 45.966 48.1085 47.4021C48.4812 47.7748 48.6613 48.1992 48.4577 48.7254C48.2698 49.2109 47.9175 49.4599 47.3975 49.5116C47.1094 49.5397 46.8165 49.5977 46.544 49.6916C45.1189 50.1881 44.2419 51.668 44.5003 53.1088C44.7838 54.6936 46.0993 55.818 47.6434 55.7945C49.2298 55.7695 50.5061 54.631 50.7238 52.9819C50.8005 52.4025 50.9916 51.9624 51.5632 51.7729C52.1411 51.5819 52.567 51.8512 52.9648 52.2537C54.3774 53.6835 55.8135 55.0929 57.2213 56.5274C57.486 56.7968 57.6316 56.8203 57.9041 56.5337C58.7404 55.6583 59.5986 54.8032 60.4709 53.9654C60.7669 53.6819 60.7747 53.5457 60.4223 53.2951C58.9205 52.2239 58.2064 50.7268 58.1422 48.9039Z" fill="#01358D"/>
<path d="M73.9749 62.2627C75.9089 62.2627 77.7819 62.2611 79.6549 62.2627C80.7402 62.2643 81.1239 62.6542 81.1239 63.7536C81.1254 69.963 81.127 76.1724 81.1239 82.3817C81.1223 85.1646 79.2869 86.9922 76.5009 86.9984C75.6224 87 74.7438 87.0063 73.8652 86.9969C73.1198 86.9875 72.5889 86.502 72.578 85.8427C72.567 85.163 73.1104 84.6635 73.8903 84.6572C74.808 84.6494 75.7257 84.6603 76.6434 84.6541C77.9385 84.6447 78.7764 83.8241 78.7764 82.5368C78.7811 76.7173 78.7748 70.8995 78.7873 65.08C78.7889 64.6995 78.6934 64.5946 78.3097 64.5993C76.3772 64.6196 74.4431 64.6008 72.5106 64.6134C71.9327 64.6181 71.4175 64.5444 71.109 63.9791C70.8146 63.4373 71.0213 62.9862 71.3204 62.5133C72.0486 61.3622 71.9343 59.8776 71.0792 58.8581C70.2023 57.8104 68.7819 57.4471 67.529 57.9483C66.2809 58.4463 65.4712 59.6944 65.537 61.0349C65.5668 61.6332 65.7609 62.1797 66.1086 62.6683C66.4077 63.0896 66.4672 63.5312 66.2214 63.9869C65.9739 64.4442 65.5652 64.6149 65.0531 64.6118C63.1206 64.604 61.1865 64.6259 59.254 64.5961C58.7952 64.5883 58.72 64.7292 58.7247 65.1474C58.7482 67.0407 58.7263 68.9356 58.7404 70.829C58.745 71.3755 58.6339 71.8438 58.1171 72.1147C57.5846 72.395 57.1117 72.251 56.6575 71.8955C54.725 70.3858 52.4339 71.4178 51.7339 73.2266C51.2484 74.481 51.6853 75.928 52.7941 76.7847C53.8887 77.6319 55.4156 77.6429 56.5479 76.8066C56.7671 76.6437 56.966 76.4495 57.2338 76.3697C57.9996 76.1442 58.7278 76.7424 58.731 77.6194C58.7388 79.7664 58.7497 81.9151 58.7216 84.0621C58.7153 84.5397 58.8171 84.6838 59.3151 84.6682C60.6024 84.6274 61.8928 84.6509 63.1801 84.6556C64.0164 84.6588 64.5707 85.1286 64.5707 85.8255C64.5707 86.5224 64.0179 86.9969 63.1817 86.9969C54.9223 86.9984 46.663 87.0047 38.4037 86.9937C35.8948 86.9906 34.0093 85.0926 34.0046 82.5712C33.9937 76.2835 33.9999 69.9974 34.0015 63.7097C34.0015 62.6574 34.3961 62.2643 35.4548 62.2627C44.5347 62.2611 53.6131 62.258 62.6931 62.2737C63.2333 62.2752 63.3571 62.1813 63.2553 61.6159C62.7306 58.6859 64.9654 55.8544 68.0959 55.4207C70.9211 55.0291 73.7744 57.2623 74.0908 60.1047C74.1722 60.8094 74.1393 61.5047 73.9749 62.2627ZM56.3913 69.0641C56.3913 67.7423 56.3694 66.4378 56.4038 65.1333C56.4148 64.6901 56.2958 64.5946 55.862 64.5961C49.5351 64.6118 43.2099 64.6118 36.883 64.5961C36.4571 64.5946 36.3349 64.6807 36.3365 65.1301C36.3537 70.8901 36.3474 76.65 36.349 82.4099C36.349 83.8585 37.1446 84.6509 38.5931 84.6525C41.542 84.6556 44.4893 84.6525 47.4382 84.6525C50.2696 84.6525 53.101 84.6541 55.9324 84.6494C56.1376 84.6494 56.4038 84.7621 56.3991 84.3487C56.3819 82.7498 56.3913 81.1493 56.3913 79.5441C53.5458 80.0796 51.4426 79.317 50.0958 77.2827C48.9071 75.4864 48.8742 73.0951 50.102 71.3286C51.6352 69.1236 53.7588 68.4204 56.3913 69.0641Z" fill="#01358D"/>
<path d="M69.781 85.8348C69.7732 86.4848 69.2658 86.9969 68.6347 86.9922C67.9926 86.9875 67.4335 86.4112 67.457 85.7816C67.4805 85.1505 68.0192 84.6478 68.6535 84.6634C69.3018 84.6791 69.7889 85.1865 69.781 85.8348Z" fill="#01358D"/>
</g>
</g>
<defs>
<clipPath id="clip0_1529_2758">
<rect width="115" height="115" fill="white"/>
</clipPath>
<clipPath id="clip1_1529_2758">
<rect width="47.1255" height="60" fill="white" transform="translate(34 27)"/>
</clipPath>
</defs>
</svg>
