<svg width="115" height="115" viewBox="0 0 115 115" fill="none" xmlns="http://www.w3.org/2000/svg">
<g clip-path="url(#clip0_1525_2642)">
<path d="M57.5001 114.617C89.0447 114.617 114.617 89.0449 114.617 57.5003C114.617 25.9557 89.0447 0.383789 57.5001 0.383789C25.9555 0.383789 0.383545 25.9557 0.383545 57.5003C0.383545 89.0449 25.9555 114.617 57.5001 114.617Z" stroke="#01358D" stroke-width="1.5" stroke-miterlimit="10" stroke-dasharray="3 3"/>
<g clip-path="url(#clip1_1525_2642)">
<path d="M83.553 83.9689C83.4377 84.0843 83.3254 84.1996 83.2131 84.315C82.9338 84.403 82.7547 84.5821 82.6849 84.8705C82.3024 85.2712 81.9381 85.6901 81.5374 86.0725C78.7994 88.6709 76.6138 88.6467 73.9669 85.9936C72.9318 84.9555 71.8967 83.9204 70.8706 82.8731C69.3074 81.2764 68.9522 79.3458 70.133 77.5002C71.0619 76.0462 69.5593 75.858 69.1313 75.1204C68.6517 74.2917 68.1174 74.6863 67.4982 75.0536C58.0243 80.6693 48.5232 80.7786 39.274 74.7045C30.1735 68.7246 26.0938 57.5539 28.847 47.2392C31.755 36.3538 40.8767 28.85 51.7864 28.0669C66.9397 26.9802 79.8224 39.2801 79.1971 54.6792C79.0119 59.1961 77.7522 63.4246 75.1932 67.2098C74.747 67.8685 74.3281 68.5121 75.2236 69.1374C75.9612 69.6534 76.2557 71.0255 77.7097 70.0207C79.3033 68.9188 81.1337 69.1981 82.5847 70.5337C84.0235 71.8603 85.4017 73.2505 86.7555 74.6651C88.5282 76.5137 88.4918 78.8632 86.7191 80.7482C86.1636 81.3371 85.5959 81.9108 85.0344 82.4937C84.7338 82.5756 84.5396 82.7669 84.4576 83.0674C84.4576 83.0674 84.4394 83.0826 84.4424 83.0826C84.2148 83.1129 84.0873 83.2495 84.0296 83.465C84.0296 83.465 83.9294 83.5652 83.9325 83.5652C83.7139 83.6168 83.5925 83.7534 83.553 83.9689ZM76.3042 53.5804C76.5896 41.7115 66.4965 30.6744 53.292 30.8383C42.2123 30.9749 30.9081 39.9388 30.8626 53.6047C30.8201 66.0017 40.901 76.4135 53.8657 76.3437C66.3204 76.28 76.5956 65.6921 76.3042 53.5804ZM85.1194 77.5336C85.0708 77.4061 85.0404 77.0571 84.8522 76.8628C83.462 75.4361 82.3358 73.7544 80.5964 72.6616C79.792 72.1577 79.1849 72.2822 78.5839 72.8771C76.6897 74.7561 74.8107 76.6503 72.9257 78.5353C72.1395 79.3215 72.1091 80.1047 72.9105 80.897C74.1278 82.099 75.3632 83.2829 76.5531 84.5092C77.4213 85.4047 78.1802 85.2833 78.9998 84.4485C80.7998 82.6181 82.6302 80.8181 84.4485 79.0059C84.8128 78.6446 85.1285 78.2561 85.1194 77.5336ZM70.9314 72.5372C70.904 72.8498 72.3064 74.4374 72.5827 74.489C72.9803 74.5619 74.5436 73.1382 74.4252 72.6981C74.1945 71.842 73.5085 71.0194 72.7496 70.9891C71.9483 70.9587 71.4595 71.9665 70.9314 72.5372Z" fill="#01358D"/>
<path d="M32.262 72.0908C35.425 72.0848 37.4679 75.3328 36.1201 78.1922C35.8985 78.6658 35.2702 79.0331 35.5798 79.6705C36.1292 80.7997 36.6999 81.9198 37.3191 83.0126C37.4861 83.3071 37.8716 83.1189 38.163 83.0642C38.9553 82.9124 39.7445 82.7394 40.5398 82.621C41.666 82.4541 42.5615 82.1293 43.12 80.9333C44.0307 78.9784 47.8979 78.8752 49.276 80.1562C51.0548 81.8106 51.2825 84.6154 49.6099 86.3881C47.9617 88.1396 44.8776 88.2064 43.4357 86.2728C42.607 85.1618 41.8603 85.1435 40.7645 85.4471C39.9418 85.6748 39.0797 85.7658 38.2389 85.9328C35.7225 86.4306 35.7012 86.4245 34.5538 84.072C34.3109 83.5742 34.0469 83.0824 33.8465 82.5694C33.3669 81.3492 32.7385 80.5751 31.2147 80.3717C29.1415 80.0955 27.7967 77.916 28.0305 75.8761C28.2733 73.7543 30.125 72.0969 32.262 72.0908ZM47.9404 83.4072C47.7826 82.5269 47.2999 81.9866 46.4044 82.0382C45.4816 82.0929 45.1052 82.7607 45.1143 83.5954C45.1235 84.4575 45.7427 84.8309 46.5046 84.8187C47.3697 84.8036 47.8524 84.2572 47.9404 83.4072ZM33.7403 76.1766C33.549 75.4694 33.1119 74.8805 32.2225 74.9078C31.2997 74.9351 30.8808 75.5877 30.9051 76.4255C30.9294 77.236 31.4636 77.7065 32.2923 77.6944C33.1848 77.6823 33.6613 77.1814 33.7403 76.1766Z" fill="#01358D"/>
<path d="M79.2275 28.0059C80.8667 28.0696 82.1507 28.7769 82.9551 30.2066C83.7291 31.5847 83.6897 33.0023 82.8883 34.3804C82.3207 35.3548 82.5119 38.1688 83.1585 39.0703C83.4954 39.5439 83.9841 39.3587 84.3939 39.4649C86.6463 40.0417 88.1185 42.1939 87.6996 44.3521C87.2595 46.6166 85.2196 48.192 82.9369 47.8065C79.9894 47.3087 78.2045 44.2702 79.8346 41.438C80.3476 40.5456 80.1685 37.4463 79.5462 36.7421C79.2457 36.4051 78.8025 36.4901 78.4231 36.4112C76.2011 35.9346 74.7896 34.0314 75.002 31.7669C75.2024 29.6329 77.0298 28.0059 79.2275 28.0059ZM84.91 43.5082C84.8037 42.7919 84.3393 42.2121 83.4742 42.209C82.6971 42.206 82.1385 42.6795 82.0778 43.5082C82.011 44.431 82.5878 44.9531 83.4104 45.023C84.2938 45.1049 84.7764 44.5251 84.91 43.5082ZM79.185 30.8289C78.2834 30.9746 77.7553 31.4481 77.8251 32.3466C77.8919 33.2391 78.4807 33.6914 79.3459 33.6337C80.1624 33.5791 80.6238 33.0236 80.5965 32.2283C80.5631 31.3631 80.0258 30.8896 79.185 30.8289Z" fill="#01358D"/>
<path d="M73.1807 54.5151C71.5172 55.3286 70.8312 54.8884 70.6916 53.0064C70.2848 47.5425 68.1842 42.9922 63.5247 39.8262C59.2112 36.8939 54.5244 35.6736 49.4278 37.073C42.6404 38.9368 38.2662 43.4051 36.9275 50.2957C35.513 57.587 38.1235 63.567 44.2249 67.7894C51.3705 72.7342 61.4788 71.1861 67.0065 64.1376C68.2753 62.5197 69.1708 62.5683 69.9995 64.2378C69.8204 65.7799 68.6517 66.7148 67.6712 67.6679C59.5603 75.5724 46.8871 75.4237 39.1586 67.2278C34.3989 62.1828 32.6657 56.0541 34.2138 49.297C35.8621 42.1119 40.2575 37.0669 47.3424 34.7417C60.3526 30.4707 72.8225 39.7533 73.5025 52.6148C73.5419 53.2826 73.5116 53.9171 73.1807 54.5151Z" fill="#01358D"/>
<path d="M57.742 43.0224C56.7828 43.2471 56.1089 43.4292 55.4259 43.5597C54.6276 43.7145 54.0023 43.4201 53.7564 42.6278C53.4923 41.7718 53.8292 41.0797 54.6913 40.849C56.6462 40.3269 58.6223 39.8776 60.5954 39.4223C61.4393 39.225 61.9007 39.741 62.0949 40.4483C62.6019 42.2969 63.0693 44.1547 63.5065 46.0215C63.725 46.9474 63.3456 47.6546 62.3924 47.8489C61.5 48.031 60.9718 47.512 60.7381 46.6711C60.5802 46.0974 60.4284 45.5207 60.2676 44.9136C59.7272 44.95 59.5026 45.3173 59.278 45.5996C55.7932 49.9768 51.2733 52.5357 45.7578 53.4767C44.5375 53.6862 43.9577 53.1459 43.8272 52.2504C43.7088 51.446 44.2795 50.8237 45.2509 50.678C48.936 50.1164 52.1354 48.5228 54.9797 46.1096C55.9905 45.2475 56.713 44.2032 57.742 43.0224Z" fill="#01358D"/>
<path d="M63.5733 57.9513C63.5733 60.1187 63.5612 62.2861 63.5794 64.4534C63.5885 65.4825 63.3214 66.3203 62.1345 66.3233C60.9385 66.3294 60.7108 65.4946 60.7169 64.4625C60.7412 60.0792 60.7351 55.6929 60.7291 51.3096C60.7291 50.2594 60.893 49.3001 62.2195 49.3548C63.4276 49.4033 63.5885 50.3049 63.5794 51.3005C63.5582 53.5165 63.5703 55.7324 63.5733 57.9513Z" fill="#01358D"/>
<path d="M57.8514 59.3421C57.8514 61.1088 57.8423 62.8785 57.8544 64.6452C57.8605 65.5741 57.5266 66.2935 56.5309 66.3329C55.4473 66.3754 55.0314 65.6105 55.0284 64.6421C55.0102 61.0572 55.0223 57.4692 55.0253 53.8843C55.0253 52.8704 55.4928 52.1814 56.5401 52.1996C57.557 52.2178 57.8605 52.9858 57.8635 53.8873C57.8696 55.7056 57.8666 57.5239 57.8666 59.3421C57.8605 59.3421 57.8575 59.3421 57.8514 59.3421Z" fill="#01358D"/>
<path d="M49.2729 60.6893C49.2729 59.4295 49.2486 58.1698 49.282 56.9131C49.3094 55.9296 49.6159 55.0675 50.7968 55.0645C51.9047 55.0614 52.2326 55.8507 52.2356 56.8068C52.2447 59.384 52.2538 61.9581 52.2174 64.5353C52.2052 65.4581 51.9685 66.5326 50.8787 66.5023C49.8436 66.4719 49.3003 65.6189 49.3458 64.4776C49.3974 63.2179 49.3579 61.952 49.3579 60.6893C49.3276 60.6893 49.3003 60.6893 49.2729 60.6893Z" fill="#01358D"/>
<path d="M43.7028 62.2222C43.7028 61.269 43.6846 60.3128 43.7088 59.3597C43.7301 58.4885 44.146 57.8966 45.0627 57.8784C45.9703 57.8602 46.4681 58.4157 46.4863 59.2899C46.5288 61.1476 46.5319 63.0054 46.5015 64.8631C46.4863 65.7221 45.9946 66.3626 45.1234 66.3535C44.2067 66.3475 43.6663 65.7646 43.6724 64.7842C43.6785 63.9312 43.6724 63.0752 43.6724 62.2222C43.6846 62.2222 43.6937 62.2222 43.7028 62.2222Z" fill="#01358D"/>
</g>
</g>
<defs>
<clipPath id="clip0_1525_2642">
<rect width="115" height="115" fill="white"/>
</clipPath>
<clipPath id="clip1_1525_2642">
<rect width="60.0668" height="60" fill="white" transform="translate(28 28)"/>
</clipPath>
</defs>
</svg>
