<svg width="115" height="115" viewBox="0 0 115 115" fill="none" xmlns="http://www.w3.org/2000/svg">
<g clip-path="url(#clip0_1523_2210)">
<path d="M57.5001 114.617C89.0447 114.617 114.617 89.0449 114.617 57.5003C114.617 25.9557 89.0447 0.383789 57.5001 0.383789C25.9555 0.383789 0.383545 25.9557 0.383545 57.5003C0.383545 89.0449 25.9555 114.617 57.5001 114.617Z" stroke="#01358D" stroke-width="1.5" stroke-miterlimit="10" stroke-dasharray="3 3"/>
<g clip-path="url(#clip1_1523_2210)">
<path d="M74.1495 50.4902C74.2007 51.7112 73.3042 52.1894 72.715 52.8768C72.3735 53.2738 71.7758 53.5385 72.0746 54.2899C72.3521 54.9772 72.8559 54.9559 73.4408 54.9943C76.6427 55.2078 76.6427 55.2206 76.6427 58.4823C76.6427 59.1227 76.6427 59.7588 76.6427 60.3992C76.6427 63.6737 76.6427 63.6822 73.3426 63.9811C72.8345 64.028 72.4119 64.0152 72.1301 64.5916C71.7758 65.3045 72.2497 65.6162 72.6168 66.0346C74.7386 68.468 74.7344 68.4723 72.4076 70.7905C71.9551 71.2431 71.5111 71.6999 71.0543 72.1481C68.719 74.4578 68.719 74.4578 66.1489 72.3189C65.7818 72.0115 65.5256 71.5846 64.8852 71.892C64.2277 72.2079 64.2363 72.6989 64.1979 73.2838C63.9929 76.4387 63.9801 76.4387 60.8977 76.443C60.2573 76.443 59.6212 76.443 58.9808 76.443C55.5953 76.4387 55.5825 76.443 55.2196 73.0874C55.1641 72.5665 55.1129 72.1695 54.5622 71.892C53.9346 71.5803 53.6699 71.9859 53.2985 72.2976C50.6857 74.4663 50.6814 74.4621 48.248 72.0243C47.8979 71.6742 47.5435 71.3199 47.1934 70.9698C44.8112 68.579 44.8069 68.5748 46.9501 65.9193C47.2703 65.5223 47.599 65.2149 47.3215 64.6215C47.0568 64.0622 46.647 64.028 46.1219 63.9768C42.7705 63.6481 42.7705 63.6353 42.7705 60.2156C42.7705 59.5752 42.7705 58.9391 42.7705 58.2987C42.7748 55.2035 42.7748 55.195 45.9596 54.9943C46.536 54.9601 47.0654 55.0114 47.3471 54.3155C47.646 53.5769 47.0867 53.2951 46.7281 52.8938C44.7173 50.6525 44.7173 50.5201 46.7964 48.4239C47.2447 47.9714 47.6972 47.5188 48.1498 47.0663C50.5875 44.6371 50.596 44.6286 53.3454 46.776C53.7596 47.0962 54.0755 47.3609 54.6518 47.0663C55.2282 46.7717 55.1727 46.3192 55.2154 45.824C55.4843 42.5537 55.4886 42.5537 58.8613 42.5537C59.57 42.5537 60.283 42.5537 60.9917 42.5537C64.0271 42.558 64.0741 42.5921 64.2021 45.602C64.2277 46.2551 64.1722 46.8614 64.9621 47.1474C65.7006 47.4164 65.9696 46.8315 66.3666 46.4771C68.5525 44.5048 68.7275 44.5048 70.8237 46.6052C71.6776 47.4591 72.5144 48.33 73.381 49.171C73.7909 49.5809 74.1324 50.0164 74.1495 50.4902ZM69.0221 70.022C69.2014 69.6976 69.4234 69.1725 69.7522 68.7285C70.1236 68.2247 69.7522 67.9984 69.5045 67.6654C67.451 64.9118 68.9752 61.1292 72.3905 60.6468C73.3469 60.5102 73.2999 60.0235 73.3255 59.3617C73.3554 58.6488 73.095 58.431 72.3649 58.3371C68.9794 57.8974 67.4553 54.102 69.5686 51.327C70.051 50.6909 69.9443 50.3707 69.4277 49.9651C69.0221 49.6449 68.5824 48.8338 68.0829 49.551C66.3154 52.0869 64.4967 50.2939 62.6609 49.7602C61.393 49.393 60.7056 48.6673 60.838 47.3011C60.9233 46.4046 60.7867 45.8538 59.6255 45.8795C58.524 45.9008 58.5198 46.49 58.5795 47.2413C58.8143 50.153 56.0265 49.5766 54.6518 50.6098C53.5845 51.4081 52.641 50.9172 51.8725 50.0121C51.2877 49.3247 50.8095 49.0515 50.0112 49.8755C49.2768 50.6354 49.533 51.0837 50.1606 51.5789C52.4788 53.4147 50.1691 55.0199 49.8873 56.7063C49.6568 58.0895 48.6066 58.478 47.3343 58.3457C46.4335 58.2517 46.1005 58.5591 46.092 59.5197C46.0834 60.5657 46.6 60.6852 47.4069 60.6212C50.4253 60.3821 49.819 63.2852 50.8906 64.7154C51.7146 65.8168 50.9461 66.7177 50.1051 67.4562C49.4433 68.0368 49.3878 68.4638 50.0752 69.1511C50.7753 69.847 51.2193 69.7659 51.7573 69.0871C53.6614 66.6835 55.3221 69.1084 57.0768 69.3859C58.4002 69.5951 58.6692 70.6411 58.5838 71.8109C58.524 72.6135 58.6393 73.1386 59.6853 73.1343C60.68 73.1301 60.9105 72.7159 60.8465 71.8578C60.7697 70.8887 60.8849 69.7958 61.9266 69.5567C63.9545 69.0914 66.0422 66.4957 68.1128 69.5097C68.1768 69.6207 68.3433 69.6549 69.0221 70.022Z" fill="#01358D"/>
<path d="M74.9948 79.4532C74.1282 79.1202 73.2701 79.4062 72.6766 78.7317C72.2027 78.1938 72.0789 77.5961 72.318 76.96C72.5614 76.311 73.0737 75.914 73.7781 75.9055C76.0493 75.8798 78.3249 75.9054 80.5961 75.8713C81.5012 75.8585 81.403 76.4562 81.4072 77.0197C81.4115 78.9366 81.3902 80.8535 81.4201 82.7704C81.4371 83.9444 81.2151 85.0544 79.8575 85.1142C78.3505 85.1825 78.0431 84.0512 78.1071 82.7747C78.1199 82.5057 78.0644 82.2325 78.0303 81.844C77.1252 81.955 76.6172 82.574 76.0195 82.9796C64.6889 90.7069 49.4434 89.4048 39.607 79.8545C39.1502 79.4105 38.6635 78.9665 38.3348 78.4328C37.878 77.6857 38.0018 76.9215 38.6892 76.3281C39.2997 75.803 39.9913 75.7347 40.6359 76.2342C41.1909 76.6696 41.6776 77.1905 42.1942 77.6772C51.2023 86.1773 65.2908 87.0183 74.9948 79.4532Z" fill="#01358D"/>
<path d="M34.4413 62.3291C35.1201 61.646 35.5385 61.0569 36.102 60.6982C36.6954 60.3226 37.3486 60.5787 37.8438 61.0654C38.4287 61.6418 38.4757 62.3846 38.1213 63.0335C37.037 65.0273 35.8544 66.9698 34.7529 68.955C34.2876 69.796 33.8094 69.2752 33.3697 69.0275C31.7644 68.1225 30.1848 67.1662 28.5796 66.2653C27.5123 65.6677 26.5175 64.959 27.2518 63.6141C27.9733 62.2907 29.1004 62.5895 30.172 63.2897C30.3257 63.3921 30.5477 63.3921 30.8594 63.4733C31.0344 60.4378 30.6502 57.4664 31.2308 54.5249C33.5789 42.618 40.5719 34.9205 52.1159 31.3088C53.3199 30.9331 54.686 30.6598 55.1258 32.248C55.5698 33.8618 54.2378 34.199 53.0168 34.5534C40.6018 38.1609 33.1349 49.2054 34.4413 62.3291Z" fill="#01358D"/>
<path d="M69.9956 32.1198C82.5685 37.7638 89.2285 48.3003 88.4771 61.1763C88.3747 62.9352 87.9648 64.6771 87.6361 66.4147C87.4184 67.5802 86.9872 68.8097 85.5057 68.5194C83.8792 68.1992 84.0371 66.8928 84.3573 65.6291C85.8686 59.7077 85.4033 53.9442 82.8332 48.3984C80.4638 43.2796 76.7495 39.3733 71.7758 36.7135C71.1355 36.372 69.4448 34.8009 70.1535 37.5503C70.3499 38.3145 69.859 38.9335 69.1076 39.194C68.3733 39.4501 67.6219 39.3007 67.212 38.6304C65.991 36.6367 64.8511 34.596 63.6771 32.5723C63.1861 31.7313 63.9802 31.6288 64.4029 31.377C66.0422 30.395 67.7158 29.4643 69.3595 28.4909C70.3969 27.8762 71.4514 27.6713 72.1259 28.8538C72.7962 30.0321 72.0875 30.8476 71.033 31.4197C70.7384 31.5862 70.4695 31.7996 69.9956 32.1198Z" fill="#01358D"/>
<path d="M66.2557 59.5884C66.2044 63.1148 63.216 66.0478 59.6767 66.0392C56.1632 66.0307 53.1619 63.0294 53.1533 59.5201C53.1448 55.9553 56.304 52.8515 59.8518 52.9454C63.3782 53.0394 66.3026 56.0791 66.2557 59.5884ZM59.6725 56.3053C57.9135 56.3224 56.4663 57.8679 56.5389 59.6482C56.6072 61.343 58.0459 62.6964 59.7536 62.6708C61.4741 62.6409 62.8573 61.2747 62.8872 59.567C62.9214 57.791 61.4357 56.2883 59.6725 56.3053Z" fill="#01358D"/>
</g>
</g>
<defs>
<clipPath id="clip0_1523_2210">
<rect width="115" height="115" fill="white"/>
</clipPath>
<clipPath id="clip1_1523_2210">
<rect width="61.5327" height="60" fill="white" transform="translate(27 28)"/>
</clipPath>
</defs>
</svg>
